HIERARCHY
ROOT Hips
{
	OFFSET 0.000000 0.000000 0.000000
	CHANNELS 6 Xposition Yposition Zposition Xrotation Yrotation Zrotation
	JOINT LeftUpLeg_virtual
	{
		OFFSET 0.000000 0.000000 0.000000
		CHANNELS 3 Xrotation Yrotation Zrotation
		JOINT LeftUpLeg
		{
			OFFSET 10.205400 -3.823500 0.155100
			CHANNELS 3 Xrotation Yrotation Zrotation
			JOINT LeftLeg
			{
				OFFSET 0.708757 -12.982077 0.567790
				CHANNELS 3 Xrotation Yrotation Zrotation
				JOINT LeftFoot
				{
					OFFSET -0.708756 -10.717838 -2.184338
					CHANNELS 3 Xrotation Yrotation Zrotation
					JOINT LeftToeBase
					{
						OFFSET 0.108149 -7.191104 7.560241
						CHANNELS 3 Xrotation Yrotation Zrotation
						JOINT LeftToe_End
						{
							OFFSET 0.070230 0.081724 4.490308
							CHANNELS 3 Xrotation Yrotation Zrotation
							End Site
							{
								OFFSET 0 0 0
							}
						}
					}
				}
			}
		}
	}
	JOINT RightUpLeg_virtual
	{
		OFFSET 0.000000 0.000000 0.000000
		CHANNELS 3 Xrotation Yrotation Zrotation
		JOINT RightUpLeg
		{
			OFFSET -10.205400 -3.823500 0.005500
			CHANNELS 3 Xrotation Yrotation Zrotation
			JOINT RightLeg
			{
				OFFSET -0.708756 -12.982134 0.610632
				CHANNELS 3 Xrotation Yrotation Zrotation
				JOINT RightFoot
				{
					OFFSET 0.708754 -10.717769 -1.945823
					CHANNELS 3 Xrotation Yrotation Zrotation
					JOINT RightToeBase
					{
						OFFSET -0.108140 -7.191069 7.372968
						CHANNELS 3 Xrotation Yrotation Zrotation
						JOINT RightToe_End
						{
							OFFSET -0.070227 0.081735 4.479403
							CHANNELS 3 Xrotation Yrotation Zrotation
							End Site
							{
								OFFSET 0 0 0
							}
						}
					}
				}
			}
		}
	}
	JOINT Spine_virtual
	{
		OFFSET 0.000000 0.000000 0.000000
		CHANNELS 3 Xrotation Yrotation Zrotation
		JOINT Spine
		{
			OFFSET 0.000000 6.876099 0.125700
			CHANNELS 3 Xrotation Yrotation Zrotation
			JOINT Spine1
			{
				OFFSET 0.000000 5.730043 0.104720
				CHANNELS 3 Xrotation Yrotation Zrotation
				JOINT Spine1_split
				{
					OFFSET 0.000000 5.730043 0.104720
					CHANNELS 3 Xrotation Yrotation Zrotation
					JOINT Spine2
					{
						OFFSET 0.000000 5.730043 0.104720
						CHANNELS 3 Xrotation Yrotation Zrotation
						JOINT Neck_virtual
						{
							OFFSET 0.000000 0.000000 0.000000
							CHANNELS 3 Xrotation Yrotation Zrotation
							JOINT Neck
							{
								OFFSET 0.000000 10.314075 0.188496
								CHANNELS 3 Xrotation Yrotation Zrotation
								JOINT Head
								{
									OFFSET 0.000000 7.643700 -2.377400
									CHANNELS 3 Xrotation Yrotation Zrotation
									JOINT HeadTop_End
									{
										OFFSET 0.000000 43.788605 -13.619600
										CHANNELS 3 Xrotation Yrotation Zrotation
										End Site
										{
											OFFSET 0 0 0
										}
									}
								}
							}
						}
						JOINT LeftShoulder_virtual
						{
							OFFSET 0.000000 0.000000 0.000000
							CHANNELS 3 Xrotation Yrotation Zrotation
							JOINT LeftShoulder
							{
								OFFSET 2.196100 4.412489 0.087492
								CHANNELS 3 Xrotation Yrotation Zrotation
								JOINT LeftShoulder_split
								{
									OFFSET 2.196100 4.412489 0.087492
									CHANNELS 3 Xrotation Yrotation Zrotation
									JOINT LeftArm
									{
										OFFSET 8.771219 -2.981674 -0.026999
										CHANNELS 3 Xrotation Yrotation Zrotation
										JOINT LeftForeArm
										{
											OFFSET 8.512804 0.000000 -0.000000
											CHANNELS 3 Xrotation Yrotation Zrotation
											JOINT LeftHand
											{
												OFFSET 18.484802 0.000000 -0.000000
												CHANNELS 3 Xrotation Yrotation Zrotation
												End Site
												{
													OFFSET 0 0 0
												}
											}
										}
									}
								}
							}
						}
						JOINT RightShoulder_virtual
						{
							OFFSET 0.000000 0.000000 0.000000
							CHANNELS 3 Xrotation Yrotation Zrotation
							JOINT RightShoulder
							{
								OFFSET -2.196100 4.412496 0.070690
								CHANNELS 3 Xrotation Yrotation Zrotation
								JOINT RightShoulder_split
								{
									OFFSET -2.196100 4.412496 0.070690
									CHANNELS 3 Xrotation Yrotation Zrotation
									JOINT RightArm
									{
										OFFSET -8.771282 -2.981682 -0.094208
										CHANNELS 3 Xrotation Yrotation Zrotation
										JOINT RightForeArm
										{
											OFFSET -8.494598 0.000000 0.000000
											CHANNELS 3 Xrotation Yrotation Zrotation
											JOINT RightHand
											{
												OFFSET -18.483803 0.000000 0.000001
												CHANNELS 3 Xrotation Yrotation Zrotation
												End Site
												{
													OFFSET 0 0 0
												}
											}
										}
									}
								}
							}
						}
					}
				}
			}
		}
	}
}
MOTION
Frames: 8
Frame Time: 0.03333333
-0.421322 29.762600 0.176531 0.000000 0.000000 0.000000 14.384474 -57.052796 13.253137 -45.462241 9.030726 28.017219 46.504234 -11.744994 -9.178818 -7.098257 -2.046459 -1.410885 2.471933 0.049552 0.370928 0.000000 0.000000 0.000000 15.336829 -57.591151 14.164853 -25.916781 -7.725584 -21.328963 48.438974 9.403222 0.103705 -39.481779 -8.980631 11.951223 8.784363 -0.086898 0.416378 0.000000 0.000000 0.000000 15.589844 -59.639013 13.623132 5.933599 1.168611 -3.303292 -4.545356 5.269062 -3.859738 0.810600 -2.230140 0.478045 0.000000 0.000000 0.000000 -2.554755 4.751023 -3.274670 -15.508781 7.753963 8.376761 3.382873 34.370960 2.313549 0.000000 0.000000 0.000000 -3.223914 5.133264 -3.766060 -29.481794 6.444826 6.159971 -7.273003 6.051496 -6.858260 33.013200 -10.480404 -42.219711 -26.077524 -86.050821 -26.277100 0.000000 0.000000 0.000000 -3.777734 4.382247 -3.696244 1.865692 16.304358 11.250546 -5.724461 0.666943 -1.110449 12.965518 17.462348 59.126926 5.847228 67.108152 -8.226585 0.000000 0.000000 0.000000 
-0.393987 29.775009 0.272873 0.000000 0.000000 0.000000 14.361086 -56.926171 13.160215 -45.627996 9.613352 28.255693 46.025025 -11.487016 -9.523901 -7.352252 -2.149940 -1.271356 2.499154 0.031928 0.428102 0.000000 0.000000 0.000000 15.500937 -57.786242 14.172515 -25.553029 -7.762244 -21.225069 48.350834 9.357496 0.114847 -39.766943 -8.976164 11.519719 8.946719 -0.132786 0.517919 0.000000 0.000000 0.000000 15.925853 -59.721193 13.852205 5.947249 1.215223 -3.401797 -4.522588 5.289018 -3.916402 1.054659 -2.042058 0.434612 0.000000 0.000000 0.000000 -2.398355 4.818762 -3.377964 -14.964255 8.420044 8.127988 3.140932 34.245701 2.567587 0.000000 0.000000 0.000000 -2.924656 5.153837 -3.766268 -29.462892 5.928839 6.152433 -6.923440 5.105639 -6.399171 33.265326 -11.652344 -42.498007 -23.432359 -85.296345 -23.337956 0.000000 0.000000 0.000000 -3.638972 4.383785 -3.779166 1.909949 16.204057 11.587035 -6.399420 1.124300 -0.661167 13.783872 17.133880 58.965057 5.125516 66.975776 -7.509890 0.000000 0.000000 0.000000 
-0.367943 29.806627 0.328463 0.000000 0.000000 0.000000 14.301491 -57.066026 12.974679 -45.464014 10.351428 28.590598 45.221112 -11.203558 -9.841198 -7.703244 -2.178592 -1.158141 2.689213 0.003526 0.362637 0.000000 0.000000 0.000000 15.486465 -57.936130 13.964367 -24.995576 -7.922353 -20.962566 48.186988 9.355049 0.095082 -40.284869 -9.013982 11.036299 8.676739 -0.208062 0.631174 0.000000 0.000000 0.000000 15.859993 -59.593694 13.787889 6.085835 1.297765 -3.503951 -4.492219 5.458505 -4.057492 1.122491 -1.888294 0.509258 0.000000 0.000000 0.000000 -2.310019 5.011449 -3.613319 -14.479767 9.172054 7.850514 2.650070 34.118987 3.001976 0.000000 0.000000 0.000000 -2.712739 5.364874 -3.865421 -29.427764 4.894295 5.850968 -6.262202 4.087017 -6.013229 33.610548 -13.107002 -42.529167 -16.590880 -83.199716 -16.195142 0.000000 0.000000 0.000000 -3.349385 4.520432 -3.988010 1.912979 15.817212 11.913624 -6.528615 1.305850 -0.622387 14.886093 17.836397 58.129664 3.987112 67.160485 -6.629333 0.000000 0.000000 0.000000 
-0.347604 29.839943 0.321712 0.000000 0.000000 0.000000 14.156759 -57.282891 12.684694 -45.098445 11.059657 28.937944 44.487529 -10.974986 -10.084786 -8.089771 -2.144509 -1.065385 3.043033 -0.032007 0.166983 0.000000 0.000000 0.000000 15.317372 -57.992391 13.629170 -24.436591 -8.108503 -20.703570 47.793002 9.420912 0.071597 -40.916108 -9.075884 10.657334 8.099761 -0.310006 0.731318 0.000000 0.000000 0.000000 15.499612 -59.212139 13.502502 6.322130 1.329693 -3.550172 -4.440510 5.726137 -4.218278 0.881099 -1.740048 0.592756 0.000000 0.000000 0.000000 -2.300237 5.253872 -3.863330 -14.196880 10.028811 7.569762 2.153455 34.122095 3.306933 0.000000 0.000000 0.000000 -2.557040 5.663317 -4.011736 -29.371999 3.577472 5.312280 -5.782857 3.291735 -5.977088 33.816895 -14.512113 -42.559663 -11.389015 -79.988120 -10.662344 0.000000 0.000000 0.000000 -2.941809 4.748100 -4.244944 1.891407 15.250023 12.178098 -6.389291 1.229186 -0.787393 16.276443 19.307031 56.505851 2.583731 67.564122 -5.735206 0.000000 0.000000 0.000000 
-0.349486 29.877956 0.258829 0.000000 0.000000 0.000000 13.838090 -57.462791 12.248004 -44.727333 11.584879 29.275232 44.104488 -10.808028 -10.292079 -8.371938 -2.088507 -0.988374 3.439990 -0.069507 -0.108307 0.000000 0.000000 0.000000 14.902535 -57.905422 13.175659 -23.939501 -8.249923 -20.523134 47.210858 9.589723 0.060156 -41.405034 -9.114552 10.560700 7.419318 -0.422537 0.802322 0.000000 0.000000 0.000000 14.910163 -58.549126 13.001040 6.604886 1.228721 -3.497165 -4.356021 6.013222 -4.339994 0.678258 -1.687523 0.367136 0.000000 0.000000 0.000000 -2.345047 5.458484 -4.001666 -13.932806 11.043385 7.293764 1.846350 34.364881 3.212472 0.000000 0.000000 0.000000 -2.473740 5.935403 -4.137697 -29.312559 2.172166 4.548636 -5.878337 2.967260 -6.397386 33.879702 -15.649027 -42.767008 -8.694251 -76.408753 -7.575797 0.000000 0.000000 0.000000 -2.505883 4.974102 -4.443106 1.902764 14.671892 12.344132 -6.103396 1.098608 -0.974627 17.935481 21.310658 54.089887 1.036518 68.013528 -4.848433 0.000000 0.000000 0.000000 
-0.387810 29.900442 0.154713 0.000000 0.000000 0.000000 13.278170 -57.457860 11.634315 -44.598772 11.813464 29.659857 44.199510 -10.705080 -10.522093 -8.377775 -2.085273 -0.926930 3.615931 -0.111002 -0.362705 0.000000 0.000000 0.000000 14.274307 -57.775252 12.609368 -23.492157 -8.336557 -20.398018 46.624586 9.808532 0.098131 -41.686410 -9.133796 10.722556 6.864573 -0.533315 0.859281 0.000000 0.000000 0.000000 14.164163 -57.721819 12.344680 6.857099 0.920105 -3.317932 -4.284036 6.243521 -4.391185 0.697325 -1.457773 0.074928 0.000000 0.000000 0.000000 -2.446502 5.573014 -3.956654 -13.550904 12.215582 7.075028 1.960741 34.847325 2.572073 0.000000 0.000000 0.000000 -2.411483 6.120726 -4.195060 -29.260295 0.837732 3.687448 -6.336425 3.065642 -7.154132 33.970000 -16.328459 -43.186101 -7.397956 -73.276879 -5.891420 0.000000 0.000000 0.000000 -2.080747 5.152884 -4.516928 1.991146 14.262269 12.325151 -5.780553 1.093459 -1.048601 19.832711 23.632787 51.006593 -0.515276 68.363377 -3.985969 0.000000 0.000000 0.000000 
-0.480728 29.896128 0.067722 0.000000 0.000000 0.000000 12.546249 -57.207349 10.866862 -44.822594 11.765192 30.137192 44.743299 -10.532125 -10.815672 -8.046953 -2.159194 -0.759322 3.605410 -0.164643 -0.558982 0.000000 0.000000 0.000000 13.446482 -57.626436 11.920688 -22.991837 -8.391157 -20.284919 46.206165 9.979724 0.190347 -41.972923 -9.140246 10.891808 6.612010 -0.607277 0.935690 0.000000 0.000000 0.000000 13.402027 -56.913654 11.595305 7.039872 0.490785 -3.039856 -4.179072 6.432998 -4.346005 0.897163 -1.146107 -0.049075 0.000000 0.000000 0.000000 -2.589293 5.641010 -3.685988 -13.017240 13.509934 6.999149 2.375828 35.483830 1.541336 0.000000 0.000000 0.000000 -2.330348 6.245919 -4.116494 -29.240839 -0.374279 3.005607 -7.174232 3.285702 -8.311019 34.353061 -16.362061 -43.726782 -7.178086 -71.095528 -5.283563 0.000000 0.000000 0.000000 -1.783368 5.270363 -4.442198 2.106622 14.108287 12.260375 -5.579362 1.114239 -0.905898 21.817883 26.151838 47.467725 -2.062348 68.270070 -3.016753 0.000000 0.000000 0.000000 
-0.625387 29.864061 0.012470 0.000000 0.000000 0.000000 11.703381 -56.769404 9.967438 -45.415577 11.448965 30.723639 45.557823 -10.204561 -11.150659 -7.433700 -2.351393 -0.407957 3.515288 -0.241684 -0.640928 0.000000 0.000000 0.000000 12.499659 -57.402453 11.083767 -22.369348 -8.452267 -20.129794 45.985669 10.079309 0.320627 -42.519703 -9.098898 10.892944 6.649853 -0.612969 1.030736 0.000000 0.000000 0.000000 12.704735 -56.171513 10.716109 7.181415 0.095420 -2.682062 -4.041431 6.660583 -4.231158 1.057154 -1.124339 0.025341 0.000000 0.000000 0.000000 -2.680407 5.757472 -3.263469 -12.296803 14.758321 7.136428 2.913442 35.935756 0.392274 0.000000 0.000000 0.000000 -2.297341 6.423892 -3.911055 -29.323010 -1.489116 2.608579 -8.098510 3.690374 -9.348458 35.043235 -15.942273 -44.161247 -7.470790 -70.034888 -5.271834 0.000000 0.000000 0.000000 -1.618550 5.412994 -4.270539 2.203934 14.156897 12.253527 -5.538594 1.062158 -0.682826 23.651320 28.704382 43.784730 -3.511633 67.140746 -1.949686 0.000000 0.000000 0.000000 
